<?xml version="1.0" encoding="UTF-8" standalone="no"?>
<!-- Created with Inkscape (http://www.inkscape.org/) -->

<svg
   width="32"
   height="32"
   viewBox="0 0 8.4666667 8.4666667"
   version="1.1"
   id="svg5"
   inkscape:version="1.1 (c4e8f9ed74, 2021-05-24)"
   sodipodi:docname="add.svg"
   xmlns:inkscape="http://www.inkscape.org/namespaces/inkscape"
   xmlns:sodipodi="http://sodipodi.sourceforge.net/DTD/sodipodi-0.dtd"
   xmlns="http://www.w3.org/2000/svg"
   xmlns:svg="http://www.w3.org/2000/svg">
  <sodipodi:namedview
     id="namedview7"
     pagecolor="#101010"
     bordercolor="#666666"
     borderopacity="1.0"
     inkscape:pageshadow="2"
     inkscape:pageopacity="0"
     inkscape:pagecheckerboard="0"
     inkscape:document-units="px"
     showgrid="false"
     showguides="true"
     inkscape:guide-bbox="true"
     inkscape:snap-smooth-nodes="true"
     inkscape:snap-nodes="true"
     inkscape:zoom="22.627417"
     inkscape:cx="15.512155"
     inkscape:cy="16.020388"
     inkscape:window-width="1920"
     inkscape:window-height="1009"
     inkscape:window-x="0"
     inkscape:window-y="0"
     inkscape:window-maximized="1"
     inkscape:current-layer="layer1"
     inkscape:snap-intersection-paths="false"
     inkscape:object-paths="true" />
  <defs
     id="defs2" />
  <g
     inkscape:label="Layer 1"
     inkscape:groupmode="layer"
     id="layer1">
    <path
       style="opacity:1;fill:#808080;fill-opacity:1;stroke:none;stroke-width:0.26458333;stroke-linecap:square;stroke-linejoin:miter;stroke-miterlimit:4;stroke-dasharray:none;stroke-dashoffset:0;stroke-opacity:1"
       d="M 0.79686273,7.8490978 H 7.6797645 c 0,0 -0.3256241,-3.3850241 -3.4464312,-3.3966273 C 1.1125262,4.4408673 0.79686273,7.8490978 0.79686273,7.8490978 Z"
       id="path1399"
       sodipodi:nodetypes="cczc" />
    <g
       id="path1733"
       style="stroke:none"
       transform="translate(9.114e-4,-0.133467)">
      <path
         style="color:#000000;fill:#808080;stroke:none;stroke-linecap:square;-inkscape-stroke:none;paint-order:stroke markers fill"
         d="m 4.2324219,1.359375 c -0.8739121,0 -1.6132813,0.7393692 -1.6132813,1.6132813 0,0.873912 0.7393692,1.6132812 1.6132813,1.6132812 0.873912,0 1.6152343,-0.7393692 1.6152343,-1.6132812 0,-0.8739121 -0.7413223,-1.6132813 -1.6152343,-1.6132813 z"
         id="path2940"
         sodipodi:nodetypes="sssss" />
      <path
         style="color:#000000;fill:#808080;stroke:none;stroke-width:2.90962;stroke-linecap:square;-inkscape-stroke:none;paint-order:stroke markers fill"
         d="m 4.3920831,2.9719961 a 0.15875,0.15875 0 0 1 -0.15875,0.15875 0.15875,0.15875 0 0 1 -0.15875,-0.15875 0.15875,0.15875 0 0 1 0.15875,-0.15875 0.15875,0.15875 0 0 1 0.15875,0.15875 z"
         id="path2942" />
    </g>
    <path
       style="opacity:1;vector-effect:none;fill:#129a22;fill-opacity:1;stroke:none;stroke-width:0.985062;stroke-linecap:butt;stroke-linejoin:miter;stroke-miterlimit:4;stroke-dasharray:none;stroke-dashoffset:0;stroke-opacity:1"
       d="M 5.2044071,5.8758807 H 6.956292 V 3.3488313 H 8.2670796 L 6.0805299,0.46969565 3.8939798,3.3488313 h 1.3104273 z"
       id="path2500"
       sodipodi:nodetypes="cccccccc" />
  </g>
</svg>
